<svg xmlns="http://www.w3.org/2000/svg" xmlns:xlink="http://www.w3.org/1999/xlink" width="512" height="512" viewBox="159 278.5 250 250" version="1.0"><defs><filter x="0%" y="0%" width="100%" height="100%" id="5b2bb31f86"><feColorMatrix values="0 0 0 0 1 0 0 0 0 1 0 0 0 0 1 0 0 0 1 0" color-interpolation-filters="sRGB"/></filter><g/><clipPath id="fed56c9ffd"><path d="M 0.015625 0 L 594.984375 0 L 594.984375 841.5 L 0.015625 841.5 Z M 0.015625 0 " clip-rule="nonzero"/></clipPath><clipPath id="922dd645ed"><path d="M 0.015625 0 L 594.984375 0 L 594.984375 841.5 L 0.015625 841.5 Z M 0.015625 0 " clip-rule="nonzero"/></clipPath><clipPath id="49fb3441ba"><path d="M 0.015625 0 L 594.984375 0 L 594.984375 841.5 L 0.015625 841.5 Z M 0.015625 0 " clip-rule="nonzero"/></clipPath><clipPath id="60f51c81dc"><path d="M 0.015625 0 L 594.984375 0 L 594.984375 841.5 L 0.015625 841.5 Z M 0.015625 0 " clip-rule="nonzero"/></clipPath><clipPath id="ff66be2437"><rect x="0" width="595" y="0" height="842"/></clipPath><clipPath id="2d27afd88b"><rect x="0" width="595" y="0" height="842"/></clipPath><mask id="25d61bbed4"><g filter="url(#5b2bb31f86)"><g transform="matrix(1, 0, 0, 1, -0.000000000000000002, 0)"><g clip-path="url(#2d27afd88b)"><g clip-path="url(#60f51c81dc)"><g transform="matrix(1, 0, 0, 1, -0.000000000000000002, 0)"><g clip-path="url(#ff66be2437)"><g fill="#000000" fill-opacity="1"><g transform="translate(220.598407, 466.273123)"><g><path d="M 73.828125 1.0625 C 61.585938 1.0625 50.550781 -1.644531 40.71875 -7.0625 C 30.882812 -12.476562 23.171875 -19.984375 17.578125 -29.578125 C 11.984375 -39.179688 9.1875 -49.929688 9.1875 -61.828125 C 9.1875 -73.722656 11.984375 -84.46875 17.578125 -94.0625 C 23.171875 -103.65625 30.910156 -111.160156 40.796875 -116.578125 C 50.691406 -121.992188 61.765625 -124.703125 74.015625 -124.703125 C 83.203125 -124.703125 91.679688 -123.171875 99.453125 -120.109375 C 107.222656 -117.046875 113.816406 -112.570312 119.234375 -106.6875 L 110.9375 -98.390625 C 101.28125 -108.160156 89.085938 -113.046875 74.359375 -113.046875 C 64.585938 -113.046875 55.695312 -110.804688 47.6875 -106.328125 C 39.6875 -101.859375 33.414062 -95.738281 28.875 -87.96875 C 24.34375 -80.195312 22.078125 -71.484375 22.078125 -61.828125 C 22.078125 -52.171875 24.34375 -43.453125 28.875 -35.671875 C 33.414062 -27.898438 39.6875 -21.773438 47.6875 -17.296875 C 55.695312 -12.828125 64.585938 -10.59375 74.359375 -10.59375 C 89.203125 -10.59375 101.394531 -15.539062 110.9375 -25.4375 L 119.234375 -17.140625 C 113.816406 -11.242188 107.191406 -6.734375 99.359375 -3.609375 C 91.523438 -0.492188 83.015625 1.0625 73.828125 1.0625 Z M 73.828125 1.0625 "/></g></g></g></g></g></g></g></g></g></mask><clipPath id="9f6302ed37"><path d="M 0.015625 0 L 594.984375 0 L 594.984375 841.5 L 0.015625 841.5 Z M 0.015625 0 " clip-rule="nonzero"/></clipPath><linearGradient x1="-294.566663" gradientTransform="matrix(0.749584, 0, 0, 0.749843, 220.817557, 280.705879)" y1="164.5" x2="499.167252" gradientUnits="userSpaceOnUse" y2="164.5" id="d461c7d4e8"><stop stop-opacity="1" stop-color="rgb(100%, 19.219971%, 19.219971%)" offset="0"/><stop stop-opacity="1" stop-color="rgb(100%, 19.219971%, 19.219971%)" offset="0.25"/><stop stop-opacity="1" stop-color="rgb(100%, 19.219971%, 19.219971%)" offset="0.3125"/><stop stop-opacity="1" stop-color="rgb(100%, 19.219971%, 19.219971%)" offset="0.34375"/><stop stop-opacity="1" stop-color="rgb(100%, 19.219971%, 19.219971%)" offset="0.359375"/><stop stop-opacity="1" stop-color="rgb(100%, 19.219971%, 19.219971%)" offset="0.367188"/><stop stop-opacity="1" stop-color="rgb(100%, 19.561768%, 19.319153%)" offset="0.371094"/><stop stop-opacity="1" stop-color="rgb(100%, 19.903564%, 19.418335%)" offset="0.375"/><stop stop-opacity="1" stop-color="rgb(100%, 20.591736%, 19.619751%)" offset="0.378906"/><stop stop-opacity="1" stop-color="rgb(100%, 21.281433%, 19.821167%)" offset="0.382812"/><stop stop-opacity="1" stop-color="rgb(100%, 21.969604%, 20.021057%)" offset="0.386719"/><stop stop-opacity="1" stop-color="rgb(100%, 22.659302%, 20.222473%)" offset="0.390625"/><stop stop-opacity="1" stop-color="rgb(100%, 23.347473%, 20.423889%)" offset="0.394531"/><stop stop-opacity="1" stop-color="rgb(100%, 24.03717%, 20.625305%)" offset="0.398438"/><stop stop-opacity="1" stop-color="rgb(100%, 24.725342%, 20.825195%)" offset="0.402344"/><stop stop-opacity="1" stop-color="rgb(100%, 25.415039%, 21.026611%)" offset="0.40625"/><stop stop-opacity="1" stop-color="rgb(100%, 26.10321%, 21.226501%)" offset="0.410156"/><stop stop-opacity="1" stop-color="rgb(100%, 26.791382%, 21.427917%)" offset="0.414062"/><stop stop-opacity="1" stop-color="rgb(100%, 27.479553%, 21.629333%)" offset="0.417969"/><stop stop-opacity="1" stop-color="rgb(100%, 28.16925%, 21.83075%)" offset="0.421875"/><stop stop-opacity="1" stop-color="rgb(100%, 28.857422%, 22.03064%)" offset="0.425781"/><stop stop-opacity="1" stop-color="rgb(100%, 29.547119%, 22.232056%)" offset="0.429688"/><stop stop-opacity="1" stop-color="rgb(100%, 30.235291%, 22.431946%)" offset="0.433594"/><stop stop-opacity="1" stop-color="rgb(100%, 30.924988%, 22.633362%)" offset="0.4375"/><stop stop-opacity="1" stop-color="rgb(100%, 31.613159%, 22.834778%)" offset="0.441406"/><stop stop-opacity="1" stop-color="rgb(100%, 32.301331%, 23.036194%)" offset="0.445312"/><stop stop-opacity="1" stop-color="rgb(100%, 32.989502%, 23.236084%)" offset="0.449219"/><stop stop-opacity="1" stop-color="rgb(100%, 33.679199%, 23.4375%)" offset="0.453125"/><stop stop-opacity="1" stop-color="rgb(100%, 34.367371%, 23.63739%)" offset="0.457031"/><stop stop-opacity="1" stop-color="rgb(100%, 35.057068%, 23.838806%)" offset="0.460938"/><stop stop-opacity="1" stop-color="rgb(100%, 35.745239%, 24.040222%)" offset="0.464844"/><stop stop-opacity="1" stop-color="rgb(100%, 36.434937%, 24.241638%)" offset="0.46875"/><stop stop-opacity="1" stop-color="rgb(100%, 37.123108%, 24.441528%)" offset="0.472656"/><stop stop-opacity="1" stop-color="rgb(100%, 37.812805%, 24.642944%)" offset="0.476562"/><stop stop-opacity="1" stop-color="rgb(100%, 38.500977%, 24.842834%)" offset="0.480469"/><stop stop-opacity="1" stop-color="rgb(100%, 39.189148%, 25.04425%)" offset="0.484375"/><stop stop-opacity="1" stop-color="rgb(100%, 39.877319%, 25.245667%)" offset="0.488281"/><stop stop-opacity="1" stop-color="rgb(100%, 40.567017%, 25.447083%)" offset="0.492187"/><stop stop-opacity="1" stop-color="rgb(100%, 41.255188%, 25.646973%)" offset="0.496094"/><stop stop-opacity="1" stop-color="rgb(100%, 41.944885%, 25.848389%)" offset="0.5"/><stop stop-opacity="1" stop-color="rgb(100%, 42.633057%, 26.048279%)" offset="0.503906"/><stop stop-opacity="1" stop-color="rgb(100%, 43.322754%, 26.249695%)" offset="0.507812"/><stop stop-opacity="1" stop-color="rgb(100%, 44.010925%, 26.451111%)" offset="0.511719"/><stop stop-opacity="1" stop-color="rgb(100%, 44.700623%, 26.652527%)" offset="0.515625"/><stop stop-opacity="1" stop-color="rgb(100%, 45.388794%, 26.852417%)" offset="0.519531"/><stop stop-opacity="1" stop-color="rgb(100%, 46.076965%, 27.053833%)" offset="0.523438"/><stop stop-opacity="1" stop-color="rgb(100%, 46.765137%, 27.255249%)" offset="0.527344"/><stop stop-opacity="1" stop-color="rgb(100%, 47.454834%, 27.456665%)" offset="0.53125"/><stop stop-opacity="1" stop-color="rgb(100%, 48.143005%, 27.656555%)" offset="0.535156"/><stop stop-opacity="1" stop-color="rgb(100%, 48.832703%, 27.857971%)" offset="0.539062"/><stop stop-opacity="1" stop-color="rgb(100%, 49.520874%, 28.057861%)" offset="0.542969"/><stop stop-opacity="1" stop-color="rgb(100%, 50.210571%, 28.259277%)" offset="0.546875"/><stop stop-opacity="1" stop-color="rgb(100%, 50.898743%, 28.460693%)" offset="0.550781"/><stop stop-opacity="1" stop-color="rgb(100%, 51.586914%, 28.662109%)" offset="0.554688"/><stop stop-opacity="1" stop-color="rgb(100%, 52.275085%, 28.862%)" offset="0.558594"/><stop stop-opacity="1" stop-color="rgb(100%, 52.964783%, 29.063416%)" offset="0.5625"/><stop stop-opacity="1" stop-color="rgb(100%, 53.652954%, 29.263306%)" offset="0.566406"/><stop stop-opacity="1" stop-color="rgb(100%, 54.342651%, 29.464722%)" offset="0.570312"/><stop stop-opacity="1" stop-color="rgb(100%, 55.030823%, 29.666138%)" offset="0.574219"/><stop stop-opacity="1" stop-color="rgb(100%, 55.72052%, 29.867554%)" offset="0.578125"/><stop stop-opacity="1" stop-color="rgb(100%, 56.289673%, 30.032349%)" offset="0.582031"/><stop stop-opacity="1" stop-color="rgb(100%, 56.858826%, 30.198669%)" offset="0.585938"/><stop stop-opacity="1" stop-color="rgb(100%, 56.858826%, 30.198669%)" offset="0.59375"/><stop stop-opacity="1" stop-color="rgb(100%, 56.858826%, 30.198669%)" offset="0.625"/><stop stop-opacity="1" stop-color="rgb(100%, 56.858826%, 30.198669%)" offset="0.75"/><stop stop-opacity="1" stop-color="rgb(100%, 56.858826%, 30.198669%)" offset="1"/></linearGradient><clipPath id="3d38778d46"><rect x="0" width="595" y="0" height="842"/></clipPath><clipPath id="45d690fff5"><rect x="0" width="595" y="0" height="842"/></clipPath><clipPath id="239db960e4"><path d="M 167.046875 286.625 L 400.929688 286.625 L 400.929688 520.503906 L 167.046875 520.503906 Z M 167.046875 286.625 " clip-rule="nonzero"/></clipPath><clipPath id="2a0245b71a"><path d="M 0.015625 0 L 594.984375 0 L 594.984375 841.5 L 0.015625 841.5 Z M 0.015625 0 " clip-rule="nonzero"/></clipPath><clipPath id="28e32506d7"><path d="M 0.015625 0 L 594.984375 0 L 594.984375 841.5 L 0.015625 841.5 Z M 0.015625 0 " clip-rule="nonzero"/></clipPath><clipPath id="eabbe86fe0"><path d="M 0.015625 0 L 594.984375 0 L 594.984375 841.5 L 0.015625 841.5 Z M 0.015625 0 " clip-rule="nonzero"/></clipPath><clipPath id="b0053f6de7"><rect x="0" width="595" y="0" height="842"/></clipPath><clipPath id="60c1d9f94d"><rect x="0" width="595" y="0" height="842"/></clipPath><mask id="c2920e1ef7"><g filter="url(#5b2bb31f86)"><g transform="matrix(1, 0, 0, 1, -0.000000000000000002, 0)"><g clip-path="url(#60c1d9f94d)"><g clip-path="url(#eabbe86fe0)"><g transform="matrix(1, 0, 0, 1, -0.000000000000000002, 0)"><g clip-path="url(#b0053f6de7)"><g fill="#000000" fill-opacity="1"><g transform="translate(222.454877, 466.273123)"><g><path d="M 122.9375 -123.640625 L 68.1875 0 L 55.28125 0 L 0.53125 -123.640625 L 14.65625 -123.640625 L 62 -16.25 L 109.6875 -123.640625 Z M 122.9375 -123.640625 "/></g></g></g></g></g></g></g></g></g></mask><clipPath id="025bedb2e3"><path d="M 0.015625 0 L 594.984375 0 L 594.984375 841.5 L 0.015625 841.5 Z M 0.015625 0 " clip-rule="nonzero"/></clipPath><linearGradient x1="-297.036022" gradientTransform="matrix(0.749553, 0, 0, 0.749844, 222.659247, 280.705764)" y1="164.5" x2="496.731055" gradientUnits="userSpaceOnUse" y2="164.5" id="0fe920e41f"><stop stop-opacity="1" stop-color="rgb(100%, 19.219971%, 19.219971%)" offset="0"/><stop stop-opacity="1" stop-color="rgb(100%, 19.219971%, 19.219971%)" offset="0.25"/><stop stop-opacity="1" stop-color="rgb(100%, 19.290161%, 19.239807%)" offset="0.375"/><stop stop-opacity="1" stop-color="rgb(100%, 20.071411%, 19.467163%)" offset="0.378906"/><stop stop-opacity="1" stop-color="rgb(100%, 20.782471%, 19.674683%)" offset="0.382812"/><stop stop-opacity="1" stop-color="rgb(100%, 21.492004%, 19.882202%)" offset="0.386719"/><stop stop-opacity="1" stop-color="rgb(100%, 22.201538%, 20.089722%)" offset="0.390625"/><stop stop-opacity="1" stop-color="rgb(100%, 22.911072%, 20.295715%)" offset="0.394531"/><stop stop-opacity="1" stop-color="rgb(100%, 23.620605%, 20.503235%)" offset="0.398438"/><stop stop-opacity="1" stop-color="rgb(100%, 24.330139%, 20.709229%)" offset="0.402344"/><stop stop-opacity="1" stop-color="rgb(100%, 25.039673%, 20.916748%)" offset="0.40625"/><stop stop-opacity="1" stop-color="rgb(100%, 25.749207%, 21.122742%)" offset="0.410156"/><stop stop-opacity="1" stop-color="rgb(100%, 26.45874%, 21.330261%)" offset="0.414062"/><stop stop-opacity="1" stop-color="rgb(100%, 27.168274%, 21.537781%)" offset="0.417969"/><stop stop-opacity="1" stop-color="rgb(100%, 27.877808%, 21.7453%)" offset="0.421875"/><stop stop-opacity="1" stop-color="rgb(100%, 28.587341%, 21.951294%)" offset="0.425781"/><stop stop-opacity="1" stop-color="rgb(100%, 29.296875%, 22.158813%)" offset="0.429687"/><stop stop-opacity="1" stop-color="rgb(100%, 30.006409%, 22.364807%)" offset="0.433594"/><stop stop-opacity="1" stop-color="rgb(100%, 30.715942%, 22.572327%)" offset="0.4375"/><stop stop-opacity="1" stop-color="rgb(100%, 31.425476%, 22.779846%)" offset="0.441406"/><stop stop-opacity="1" stop-color="rgb(100%, 32.13501%, 22.987366%)" offset="0.445312"/><stop stop-opacity="1" stop-color="rgb(100%, 32.844543%, 23.193359%)" offset="0.449219"/><stop stop-opacity="1" stop-color="rgb(100%, 33.554077%, 23.400879%)" offset="0.453125"/><stop stop-opacity="1" stop-color="rgb(100%, 34.263611%, 23.606873%)" offset="0.457031"/><stop stop-opacity="1" stop-color="rgb(100%, 34.973145%, 23.814392%)" offset="0.460938"/><stop stop-opacity="1" stop-color="rgb(100%, 35.682678%, 24.020386%)" offset="0.464844"/><stop stop-opacity="1" stop-color="rgb(100%, 36.392212%, 24.227905%)" offset="0.46875"/><stop stop-opacity="1" stop-color="rgb(100%, 37.101746%, 24.435425%)" offset="0.472656"/><stop stop-opacity="1" stop-color="rgb(100%, 37.811279%, 24.642944%)" offset="0.476563"/><stop stop-opacity="1" stop-color="rgb(100%, 38.520813%, 24.848938%)" offset="0.480469"/><stop stop-opacity="1" stop-color="rgb(100%, 39.230347%, 25.056458%)" offset="0.484375"/><stop stop-opacity="1" stop-color="rgb(100%, 39.93988%, 25.262451%)" offset="0.488281"/><stop stop-opacity="1" stop-color="rgb(100%, 40.649414%, 25.469971%)" offset="0.492188"/><stop stop-opacity="1" stop-color="rgb(100%, 41.358948%, 25.67749%)" offset="0.496094"/><stop stop-opacity="1" stop-color="rgb(100%, 42.068481%, 25.88501%)" offset="0.5"/><stop stop-opacity="1" stop-color="rgb(100%, 42.778015%, 26.091003%)" offset="0.503906"/><stop stop-opacity="1" stop-color="rgb(100%, 43.487549%, 26.298523%)" offset="0.507812"/><stop stop-opacity="1" stop-color="rgb(100%, 44.197083%, 26.504517%)" offset="0.511719"/><stop stop-opacity="1" stop-color="rgb(100%, 44.906616%, 26.712036%)" offset="0.515625"/><stop stop-opacity="1" stop-color="rgb(100%, 45.61615%, 26.919556%)" offset="0.519531"/><stop stop-opacity="1" stop-color="rgb(100%, 46.325684%, 27.127075%)" offset="0.523438"/><stop stop-opacity="1" stop-color="rgb(100%, 47.035217%, 27.333069%)" offset="0.527344"/><stop stop-opacity="1" stop-color="rgb(100%, 47.744751%, 27.540588%)" offset="0.53125"/><stop stop-opacity="1" stop-color="rgb(100%, 48.454285%, 27.746582%)" offset="0.535156"/><stop stop-opacity="1" stop-color="rgb(100%, 49.163818%, 27.954102%)" offset="0.539062"/><stop stop-opacity="1" stop-color="rgb(100%, 49.873352%, 28.160095%)" offset="0.542969"/><stop stop-opacity="1" stop-color="rgb(100%, 50.582886%, 28.367615%)" offset="0.546875"/><stop stop-opacity="1" stop-color="rgb(100%, 51.292419%, 28.575134%)" offset="0.550781"/><stop stop-opacity="1" stop-color="rgb(100%, 52.001953%, 28.782654%)" offset="0.554688"/><stop stop-opacity="1" stop-color="rgb(100%, 52.711487%, 28.988647%)" offset="0.558594"/><stop stop-opacity="1" stop-color="rgb(100%, 53.421021%, 29.196167%)" offset="0.5625"/><stop stop-opacity="1" stop-color="rgb(100%, 54.130554%, 29.402161%)" offset="0.566406"/><stop stop-opacity="1" stop-color="rgb(100%, 54.840088%, 29.60968%)" offset="0.570312"/><stop stop-opacity="1" stop-color="rgb(100%, 55.549622%, 29.8172%)" offset="0.574219"/><stop stop-opacity="1" stop-color="rgb(100%, 56.259155%, 30.024719%)" offset="0.578125"/><stop stop-opacity="1" stop-color="rgb(100%, 56.558228%, 30.111694%)" offset="0.582031"/><stop stop-opacity="1" stop-color="rgb(100%, 56.858826%, 30.198669%)" offset="0.585938"/><stop stop-opacity="1" stop-color="rgb(100%, 56.858826%, 30.198669%)" offset="0.59375"/><stop stop-opacity="1" stop-color="rgb(100%, 56.858826%, 30.198669%)" offset="0.625"/><stop stop-opacity="1" stop-color="rgb(100%, 56.858826%, 30.198669%)" offset="0.75"/><stop stop-opacity="1" stop-color="rgb(100%, 56.858826%, 30.198669%)" offset="1"/></linearGradient><clipPath id="a9b7553dd7"><rect x="0" width="595" y="0" height="842"/></clipPath><clipPath id="2a77d62edf"><rect x="0" width="595" y="0" height="842"/></clipPath><clipPath id="ad3ece164d"><rect x="0" width="595" y="0" height="842"/></clipPath></defs><g clip-path="url(#fed56c9ffd)"><g transform="matrix(1, 0, 0, 1, -0.000000000000000002, 0)"><g clip-path="url(#ad3ece164d)"><g clip-path="url(#922dd645ed)"><g transform="matrix(1, 0, 0, 1, -0.000000000000000002, 0)"><g clip-path="url(#45d690fff5)"><g clip-path="url(#49fb3441ba)"><g mask="url(#25d61bbed4)"><g transform="matrix(1, 0, 0, 1, -0.000000000000000002, 0)"><g clip-path="url(#3d38778d46)"><g clip-path="url(#9f6302ed37)"><path fill="url(#d461c7d4e8)" d="M 0.015625 0 L 0.015625 841.5 L 594.984375 841.5 L 594.984375 0 Z M 0.015625 0 " fill-rule="nonzero"/></g></g></g></g></g></g></g></g><g clip-path="url(#239db960e4)"><path fill="#ff864a" d="M 374.628906 520.726562 L 193.558594 520.726562 C 192.6875 520.726562 191.824219 520.679688 190.960938 520.59375 C 190.09375 520.507812 189.238281 520.382812 188.386719 520.210938 C 187.535156 520.039062 186.695312 519.828125 185.863281 519.574219 C 185.035156 519.324219 184.21875 519.03125 183.414062 518.699219 C 182.613281 518.363281 181.828125 517.992188 181.066406 517.582031 C 180.300781 517.175781 179.554688 516.726562 178.835938 516.246094 C 178.113281 515.761719 177.417969 515.246094 176.746094 514.695312 C 176.074219 514.144531 175.433594 513.5625 174.820312 512.945312 C 174.203125 512.332031 173.621094 511.691406 173.070312 511.019531 C 172.519531 510.347656 172.003906 509.652344 171.523438 508.929688 C 171.039062 508.207031 170.59375 507.464844 170.183594 506.699219 C 169.773438 505.933594 169.40625 505.148438 169.070312 504.347656 C 168.738281 503.546875 168.445312 502.730469 168.195312 501.898438 C 167.941406 501.066406 167.730469 500.226562 167.5625 499.375 C 167.390625 498.523438 167.261719 497.667969 167.179688 496.800781 C 167.09375 495.9375 167.050781 495.074219 167.046875 494.203125 L 167.046875 313.132812 C 167.050781 312.265625 167.09375 311.398438 167.179688 310.535156 C 167.265625 309.671875 167.394531 308.816406 167.5625 307.964844 C 167.734375 307.113281 167.945312 306.273438 168.199219 305.441406 C 168.449219 304.609375 168.742188 303.796875 169.074219 302.992188 C 169.410156 302.191406 169.777344 301.410156 170.1875 300.644531 C 170.597656 299.878906 171.042969 299.136719 171.527344 298.414062 C 172.007812 297.691406 172.527344 296.996094 173.078125 296.324219 C 173.628906 295.652344 174.210938 295.011719 174.824219 294.398438 C 175.4375 293.785156 176.078125 293.203125 176.75 292.652344 C 177.421875 292.101562 178.117188 291.585938 178.839844 291.101562 C 179.558594 290.621094 180.304688 290.171875 181.066406 289.765625 C 181.832031 289.355469 182.617188 288.984375 183.417969 288.652344 C 184.21875 288.316406 185.035156 288.027344 185.867188 287.773438 C 186.695312 287.519531 187.539062 287.308594 188.386719 287.140625 C 189.238281 286.96875 190.097656 286.839844 190.960938 286.753906 C 191.824219 286.667969 192.691406 286.625 193.558594 286.625 L 374.628906 286.625 C 375.496094 286.625 376.363281 286.667969 377.226562 286.753906 C 378.089844 286.839844 378.949219 286.96875 379.800781 287.136719 C 380.652344 287.304688 381.492188 287.519531 382.324219 287.769531 C 383.152344 288.023438 383.96875 288.316406 384.773438 288.648438 C 385.574219 288.980469 386.359375 289.351562 387.125 289.761719 C 387.890625 290.167969 388.632812 290.617188 389.355469 291.097656 C 390.074219 291.578125 390.773438 292.097656 391.445312 292.648438 C 392.113281 293.199219 392.757812 293.78125 393.371094 294.394531 C 393.984375 295.007812 394.566406 295.648438 395.117188 296.320312 C 395.671875 296.992188 396.1875 297.6875 396.667969 298.410156 C 397.152344 299.132812 397.597656 299.875 398.007812 300.640625 C 398.417969 301.40625 398.789062 302.1875 399.121094 302.992188 C 399.453125 303.792969 399.746094 304.609375 400 305.4375 C 400.253906 306.269531 400.464844 307.109375 400.636719 307.960938 C 400.804688 308.8125 400.933594 309.671875 401.019531 310.535156 C 401.105469 311.398438 401.148438 312.265625 401.152344 313.132812 L 401.152344 494.203125 C 401.148438 495.074219 401.105469 495.9375 401.019531 496.804688 C 400.933594 497.667969 400.808594 498.523438 400.636719 499.375 C 400.46875 500.226562 400.257812 501.070312 400.003906 501.902344 C 399.75 502.730469 399.457031 503.546875 399.125 504.351562 C 398.792969 505.152344 398.421875 505.9375 398.011719 506.703125 C 397.601562 507.46875 397.15625 508.210938 396.675781 508.933594 C 396.191406 509.65625 395.675781 510.351562 395.125 511.023438 C 394.574219 511.695312 393.988281 512.335938 393.375 512.953125 C 392.761719 513.566406 392.121094 514.148438 391.449219 514.699219 C 390.777344 515.25 390.082031 515.765625 389.359375 516.25 C 388.636719 516.730469 387.890625 517.179688 387.125 517.585938 C 386.359375 517.996094 385.578125 518.367188 384.773438 518.703125 C 383.972656 519.035156 383.15625 519.328125 382.324219 519.578125 C 381.496094 519.832031 380.652344 520.042969 379.800781 520.210938 C 378.949219 520.382812 378.09375 520.511719 377.226562 520.597656 C 376.363281 520.683594 375.496094 520.726562 374.628906 520.726562 Z M 193.558594 293.019531 C 192.898438 293.019531 192.242188 293.054688 191.585938 293.121094 C 190.933594 293.183594 190.28125 293.28125 189.636719 293.414062 C 188.992188 293.542969 188.351562 293.703125 187.722656 293.894531 C 187.09375 294.085938 186.472656 294.308594 185.867188 294.558594 C 185.257812 294.8125 184.664062 295.09375 184.082031 295.40625 C 183.503906 295.714844 182.9375 296.054688 182.390625 296.421875 C 181.84375 296.785156 181.316406 297.179688 180.808594 297.597656 C 180.296875 298.015625 179.8125 298.457031 179.347656 298.921875 C 178.878906 299.386719 178.4375 299.875 178.019531 300.382812 C 177.601562 300.890625 177.210938 301.417969 176.84375 301.96875 C 176.480469 302.515625 176.140625 303.078125 175.828125 303.660156 C 175.519531 304.238281 175.238281 304.832031 174.984375 305.441406 C 174.730469 306.050781 174.511719 306.667969 174.320312 307.296875 C 174.125 307.929688 173.964844 308.566406 173.835938 309.210938 C 173.707031 309.855469 173.609375 310.507812 173.542969 311.164062 C 173.480469 311.816406 173.445312 312.472656 173.445312 313.132812 L 173.445312 494.203125 C 173.445312 494.863281 173.476562 495.519531 173.542969 496.175781 C 173.609375 496.832031 173.707031 497.480469 173.835938 498.128906 C 173.964844 498.773438 174.125 499.410156 174.316406 500.042969 C 174.507812 500.671875 174.730469 501.292969 174.980469 501.898438 C 175.234375 502.507812 175.515625 503.101562 175.824219 503.683594 C 176.136719 504.265625 176.472656 504.828125 176.839844 505.375 C 177.207031 505.921875 177.597656 506.453125 178.015625 506.960938 C 178.433594 507.46875 178.875 507.957031 179.339844 508.425781 C 179.808594 508.890625 180.292969 509.332031 180.804688 509.75 C 181.3125 510.167969 181.839844 510.558594 182.386719 510.925781 C 182.933594 511.292969 183.5 511.632812 184.078125 511.941406 C 184.660156 512.253906 185.253906 512.535156 185.863281 512.789062 C 186.472656 513.039062 187.089844 513.261719 187.71875 513.457031 C 188.351562 513.648438 188.988281 513.808594 189.632812 513.9375 C 190.28125 514.066406 190.929688 514.164062 191.585938 514.230469 C 192.242188 514.296875 192.898438 514.328125 193.558594 514.328125 L 374.628906 514.328125 C 375.289062 514.328125 375.945312 514.296875 376.601562 514.230469 C 377.257812 514.164062 377.90625 514.070312 378.554688 513.9375 C 379.199219 513.808594 379.839844 513.648438 380.46875 513.457031 C 381.097656 513.265625 381.71875 513.042969 382.328125 512.792969 C 382.9375 512.539062 383.53125 512.257812 384.113281 511.945312 C 384.691406 511.636719 385.257812 511.296875 385.804688 510.929688 C 386.351562 510.566406 386.882812 510.171875 387.390625 509.753906 C 387.898438 509.335938 388.386719 508.894531 388.851562 508.429688 C 389.320312 507.960938 389.761719 507.476562 390.179688 506.964844 C 390.597656 506.457031 390.988281 505.929688 391.355469 505.378906 C 391.722656 504.832031 392.0625 504.269531 392.371094 503.6875 C 392.683594 503.105469 392.964844 502.511719 393.214844 501.902344 C 393.46875 501.292969 393.691406 500.675781 393.882812 500.042969 C 394.074219 499.414062 394.234375 498.773438 394.363281 498.128906 C 394.492188 497.484375 394.589844 496.832031 394.65625 496.175781 C 394.722656 495.519531 394.753906 494.863281 394.753906 494.203125 L 394.753906 313.132812 C 394.753906 312.472656 394.71875 311.816406 394.65625 311.160156 C 394.589844 310.507812 394.492188 309.855469 394.363281 309.210938 C 394.234375 308.5625 394.070312 307.925781 393.878906 307.296875 C 393.6875 306.664062 393.464844 306.046875 393.210938 305.4375 C 392.960938 304.832031 392.679688 304.234375 392.367188 303.65625 C 392.054688 303.074219 391.71875 302.511719 391.351562 301.964844 C 390.984375 301.414062 390.59375 300.886719 390.175781 300.378906 C 389.757812 299.871094 389.316406 299.382812 388.847656 298.917969 C 388.382812 298.449219 387.894531 298.007812 387.386719 297.589844 C 386.875 297.171875 386.347656 296.78125 385.800781 296.414062 C 385.253906 296.050781 384.6875 295.710938 384.109375 295.402344 C 383.527344 295.089844 382.933594 294.808594 382.324219 294.558594 C 381.714844 294.304688 381.097656 294.082031 380.464844 293.890625 C 379.835938 293.699219 379.199219 293.539062 378.550781 293.410156 C 377.90625 293.28125 377.253906 293.183594 376.601562 293.117188 C 375.945312 293.054688 375.289062 293.019531 374.628906 293.019531 Z M 193.558594 293.019531 " fill-opacity="1" fill-rule="nonzero"/></g><g clip-path="url(#2a0245b71a)"><g transform="matrix(1, 0, 0, 1, -0.000000000000000002, 0)"><g clip-path="url(#2a77d62edf)"><g clip-path="url(#28e32506d7)"><g mask="url(#c2920e1ef7)"><g transform="matrix(1, 0, 0, 1, -0.000000000000000002, 0)"><g clip-path="url(#a9b7553dd7)"><g clip-path="url(#025bedb2e3)"><path fill="url(#0fe920e41f)" d="M 0.015625 0 L 0.015625 841.5 L 594.984375 841.5 L 594.984375 0 Z M 0.015625 0 " fill-rule="nonzero"/></g></g></g></g></g></g></g></g></g></g></g></svg>